<svg xmlns="http://www.w3.org/2000/svg" width="167" height="111" fill="none"><path fill="#BDBDBD" d="M141.318 50.583h.087c.201.949.288 1.38.492 2.07l1.184 4.658h-3.467l1.184-4.659c.173-.688.29-1.12.52-2.069m3.147 12.22h3.266l-4.101-14.522h-4.45l-4.131 14.523h3.091l.924-3.25h4.478zm-16.494.2c1.791 0 3.524-.43 4.652-.89V54.84h-5.028v2.328h2.053v3.248c-.377.23-1.014.375-1.704.375-2.138 0-2.803-1.063-2.803-4.14V54.78c0-3.047.634-4.543 2.599-4.543 1.358 0 1.822.92 1.853 1.899h3.091c-.034-2.56-1.881-4.14-4.945-4.14-4.277 0-5.835 2.471-5.835 6.47v2.129c-.03 4.34 1.445 6.41 6.066 6.41M113.5 50.582h.088c.201.949.289 1.38.49 2.07l1.186 4.658h-3.467l1.184-4.659c.173-.688.288-1.12.519-2.069m3.149 12.221h3.262l-4.099-14.523h-4.452l-4.127 14.523h3.091l.924-3.25h4.476zm-15.601 0h3.091V48.281h-3.091zm-8.493.2c3.437 0 5.113-1.582 5.2-4.54h-3.119c-.058 1.437-.522 2.327-1.993 2.327-1.674 0-2.308-1.177-2.308-4.196v-2.129c0-3.049.634-4.197 2.308-4.197 1.561 0 1.82 1.035 1.877 2.128h3.119c-.03-2.53-1.474-4.341-5.082-4.341-4.017 0-5.488 2.501-5.488 6.41v2.129c0 3.938 1.47 6.41 5.486 6.41m-20.915-.2h2.746V54.38c0-1.178-.06-2.616-.118-3.796h.09c.432 1.495.662 2.271 1.067 3.392l3.207 8.83h4.507V48.28h-2.745v8.083c0 1.06.03 2.471.058 3.822h-.086c-.231-1.008-.436-2.014-1.042-3.652l-3.004-8.252h-4.707v14.522zm-12.595 0h8.406v-2.331h-5.315v-4.025h4.823v-2.356h-4.824v-3.509h5.114v-2.33h-8.207v14.55zm-11.293 0h8.089v-2.331h-4.998V48.282h-3.091zm-9.59-12.222h.086c.201.949.291 1.38.492 2.07l1.184 4.658H36.46l1.184-4.659c.173-.688.29-1.12.52-2.069m3.147 12.222h3.265l-4.103-14.523h-4.448l-4.131 14.523h3.09l.924-3.25h4.48zM22.388 60.59v-4.224h1.88c1.588 0 2.338.718 2.338 2.125 0 1.55-.982 2.13-2.397 2.13h-1.82zm0-6.44v-3.652h1.937c1.413 0 2.02.63 2.02 1.811 0 1.18-.689 1.841-1.99 1.841zm-3.09 8.655h5.459c3.06 0 4.938-1.095 4.938-4.112 0-1.927-1.124-3.248-3.206-3.452v-.084c1.847-.316 2.947-1.323 2.947-3.25 0-2.503-1.445-3.623-4.535-3.623H19.27v14.521z"/></svg>