<svg xmlns="http://www.w3.org/2000/svg" width="167" height="111" fill="none"><path fill="#BDBDBD" d="M57.132 65.07H46.626v-7.557h8.61v-4.108h-8.61V45.97H57.05v-4.395H43.248l-1.73 1.684v15.979l-.29 10.187h15.904zM87.95 43.26l-1.73-1.685h-3.71l.33 10.146v7.517l-.33 10.187h15.945v-4.354H87.95zm23.937-1.685v21.36c-.124 1.355-1.112 2.177-2.678 2.177-1.648 0-2.719-.945-2.719-2.465V41.575h-5.439l.33 10.146v10.68c0 4.395 2.925 7.024 7.828 7.024s7.787-2.629 7.787-7.024V43.259l-1.69-1.684zm32.136 0-1.689 1.684v26.166h5.067V51.721l.33-10.146zm-22.207 4.395h5.274v21.77l1.689 1.685h3.708l-.33-10.146V47.203a1.24 1.24 0 0 1 1.236-1.232h4.038v-4.396h-15.615zm-48.04 12.16c2.926-1.438 4.533-4.272 4.533-7.969 0-5.545-3.049-8.585-8.57-8.585h-5.891l-1.73 1.684v15.979l-.33 10.187h5.397V58.663h.783l6.056 10.762h4.903v-1.684l-5.274-9.571zm-4.984-3.697h-1.607V45.97h1.607c2.884 0 4.326 1.397 4.326 4.231s-1.442 4.231-4.326 4.231m-36.586.74-.494-.206.412-.205c2.06-1.15 3.048-2.958 3.048-5.628 0-4.888-2.884-7.558-8.157-7.558h-7.746l.33 10.146V67.7l1.689 1.684h6.88c5.274 0 8.158-2.752 8.158-7.723 0-4.19-2.348-5.71-4.12-6.49m-8.281-9.202h2.884c1.483 0 3.255.986 3.255 3.697s-1.73 3.738-3.255 3.738h-2.884zm3.914 19.101h-3.955v-6.203a1.23 1.23 0 0 1 1.236-1.232h2.719c1.483 0 3.255.986 3.255 3.697s-1.73 3.738-3.255 3.738"/></svg>