<svg xmlns="http://www.w3.org/2000/svg" width="167" height="111" fill="none"><path fill="#BDBDBD" d="m114.972 63.608-3.984-6.968a5.07 5.07 0 0 0 2.89-4.569c0-2.803-2.289-5.085-5.101-5.085h-8.52v16.622h3.789v-6.452h3.015l3.689 6.452zm-10.988-9.66v-3.745h4.083l-.016.006c1.243.067 2.035.785 2.035 1.87 0 1.073-.848 1.825-2.113 1.87zm-19.2 9.66V46.986H97.24v3.172h-8.565v3.325h7.51v3.242h-7.51v3.546h8.989v3.337zm-17.766 0-3.984-6.968a5.07 5.07 0 0 0 2.89-4.569c0-2.803-2.289-5.085-5.1-5.085h-8.521v16.622h3.789v-6.452h3.016l3.688 6.452zm-10.99-9.66v-3.745h4.085l-.016.006c1.243.067 2.035.785 2.035 1.87 0 1.073-.849 1.825-2.114 1.87zm-13.822 10.07c4.558 0 7.28-2.613 7.28-6.99v-10.03h-3.89v9.771c0 2.367-1.236 3.724-3.39 3.724h-.002c-2.154 0-3.39-1.357-3.39-3.724V47h-3.892v10.03c0 4.376 2.723 6.99 7.282 6.99zm-12.373-9.616c2.246.764 3.34 2.668 3.34 4.505 0 2.587-2.107 4.693-4.7 4.701H19.27V46.985h8.477a4.02 4.02 0 0 1 3.988 4.009 4 4 0 0 1-1.9 3.408m-6.744 6.105h4.254c1.337 0 2.037-.994 2.037-1.977 0-.792-.632-1.907-2.037-1.907h-4.254zm3.115-6.985c.98 0 1.748-.754 1.748-1.717 0-.932-.802-1.718-1.749-1.718H23.09v3.435zm53.15.877c2.246.763 3.34 2.668 3.34 4.504 0 2.588-2.107 4.693-4.7 4.702h-9.203V46.982h8.476a4.02 4.02 0 0 1 3.989 4.01 3.99 3.99 0 0 1-1.902 3.407m-6.743 6.105h4.253c1.337 0 2.037-.995 2.037-1.978 0-.791-.632-1.906-2.037-1.906H72.61zm3.114-6.985c.98 0 1.749-.754 1.749-1.718 0-.93-.802-1.717-1.75-1.717H72.61v3.435zm55.735 10.09-3.984-6.969a5.07 5.07 0 0 0 2.89-4.569c0-2.803-2.288-5.085-5.1-5.085h-8.521v16.622h3.79v-6.452h3.016l3.687 6.452zm-10.989-9.661v-3.745h4.084l-.016.006c1.243.067 2.036.785 2.036 1.87 0 1.073-.849 1.825-2.114 1.87zm16.526 9.66v-6.773l-6.614-9.849h4.858l3.808 5.715 3.823-5.715h4.859l-6.63 9.85v6.772z"/></svg>