<svg xmlns="http://www.w3.org/2000/svg" width="167" height="111" fill="none"><path fill="#BDBDBD" fill-rule="evenodd" d="M115.98 70.92c0 11.915-9.694 21.58-21.644 21.58a21.4 21.4 0 0 1-9.614-2.249 21.8 21.8 0 0 1-9.576 2.249c-11.95 0-21.644-9.665-21.644-21.58 0-11.913 9.694-21.578 21.644-21.578 3.442 0 6.687.789 9.575 2.209a21.8 21.8 0 0 1 9.615-2.21c11.95 0 21.644 9.666 21.644 21.58m-4.273 0c0-9.546-7.795-17.318-17.37-17.318-1.82 0-3.601.277-5.224.79a21.33 21.33 0 0 1 6.925 10.73h-4.471a17.26 17.26 0 0 0-6.806-8.68c-3.126 2.052-5.5 5.09-6.766 8.68h-4.471a21.7 21.7 0 0 1 6.924-10.77 17.9 17.9 0 0 0-5.263-.789c-9.575 0-17.37 7.772-17.37 17.318s7.795 17.32 17.37 17.32c1.82 0 3.561-.277 5.184-.79-4.313-3.59-7.122-8.876-7.558-14.793H83.1v4.22l-5.025.08a17.35 17.35 0 0 0 6.687 8.402 17.36 17.36 0 0 0 6.687-8.403l-5.025-.079v-4.22H96.71a21.38 21.38 0 0 1-7.637 14.754c1.662.513 3.442.828 5.263.828 9.615.04 17.37-7.693 17.37-17.28" clip-rule="evenodd"/><path fill="#BDBDBD" d="m112.387 23.008-.133.044q-.776-1.679-2.217-2.674-1.419-.994-3.568-.994-1.198 0-2.284.508a5.7 5.7 0 0 0-1.906 1.392q-.798.884-1.286 2.145-.488 1.258-.488 2.784 0 1.524.488 2.784t1.286 2.166a5.8 5.8 0 0 0 1.906 1.37 5.5 5.5 0 0 0 2.284.487q2.128 0 3.457-.663 1.353-.686 2.284-2.078l.133.044-.045 1.415q-.51.53-1.175.95a8.6 8.6 0 0 1-1.44.686 9 9 0 0 1-1.574.397 9 9 0 0 1-1.64.155 9.7 9.7 0 0 1-3.259-.552 8.7 8.7 0 0 1-2.727-1.548 7.5 7.5 0 0 1-1.862-2.43q-.687-1.438-.687-3.183 0-1.746.688-3.161a7.5 7.5 0 0 1 1.861-2.453 8.2 8.2 0 0 1 2.727-1.547 9.6 9.6 0 0 1 3.258-.552q.82 0 1.641.132a8 8 0 0 1 1.574.42q.776.266 1.44.686.666.397 1.175.928zM63.539 27.23q-.243.11-.465.287a.59.59 0 0 0-.221.486v2.719a7.3 7.3 0 0 1-2.728 2.365q-1.661.84-3.68.84a9.6 9.6 0 0 1-3.258-.553 8.7 8.7 0 0 1-2.726-1.548 7.5 7.5 0 0 1-1.862-2.43q-.687-1.438-.688-3.183 0-1.746.688-3.16a7.5 7.5 0 0 1 1.862-2.454 8.1 8.1 0 0 1 2.726-1.546 9.6 9.6 0 0 1 3.259-.553q.82 0 1.64.133a8 8 0 0 1 1.574.42 6.8 6.8 0 0 1 1.44.685 5.6 5.6 0 0 1 1.176.928l.089 2.342-.134.044q-.774-1.678-2.216-2.674-1.419-.994-3.57-.994-1.196 0-2.282.508a5.7 5.7 0 0 0-1.906 1.392q-.798.885-1.286 2.145-.489 1.26-.488 2.784 0 1.502.466 2.762.487 1.26 1.285 2.166a6.1 6.1 0 0 0 1.906 1.393 5.6 5.6 0 0 0 2.306.486q2.305 0 3.946-.884v-4.133a.57.57 0 0 0-.244-.486 2.5 2.5 0 0 0-.443-.288l.02-.11q.111.02.399.044l.598.044h1.907q.266-.02.51-.044.243-.02.376-.044zm16.056-8.266q-.22.11-.443.287-.222.178-.244.663-.02.53-.044 1.348 0 .796-.02 1.813 0 1.017-.02 2.21v2.475q-.02 1.437-.355 2.453-.332 1.017-.887 1.702a4.3 4.3 0 0 1-1.197 1.083 5.6 5.6 0 0 1-1.285.597 4.6 4.6 0 0 1-1.175.265q-.555.066-.865.066-1.264 0-2.439-.33a5.5 5.5 0 0 1-2.061-1.018q-.886-.708-1.419-1.834-.531-1.127-.532-2.74v-4.797q0-1.06-.02-1.9 0-.862-.02-1.393-.02-.486-.244-.662a2.5 2.5 0 0 0-.443-.288l.02-.11q.11.02.355.043.266.021.532.045.288 0 .553.02h.799q.266-.02.554-.02a20 20 0 0 0 .532-.045q.266-.02.377-.044l.02.11q-.243.111-.465.288-.2.178-.222.663-.02.531-.044 1.392v6.697q0 2.409 1.13 3.558 1.131 1.15 3.347 1.15.643 0 1.463-.155a3.9 3.9 0 0 0 1.53-.707q.732-.531 1.22-1.503.51-.972.51-2.586 0-1.745-.021-2.984 0-1.26-.02-2.144 0-.907-.021-1.546a78 78 0 0 0-.044-1.172q-.02-.486-.244-.663a2.5 2.5 0 0 0-.443-.287l.02-.11q.245.043.554.088.311.02.577.02.243 0 .554-.02.331-.045.576-.089zm16.085 4.044-.132.044q-.777-1.679-2.217-2.674-1.419-.994-3.57-.994-1.196 0-2.282.508a5.7 5.7 0 0 0-1.907 1.392q-.798.884-1.285 2.145-.488 1.258-.488 2.784 0 1.524.488 2.784.487 1.26 1.285 2.166a5.8 5.8 0 0 0 1.906 1.37 5.5 5.5 0 0 0 2.284.487q2.127 0 3.458-.663 1.352-.686 2.283-2.078l.133.044-.044 1.415q-.51.53-1.175.95a8.6 8.6 0 0 1-1.44.686 9 9 0 0 1-1.574.397 9 9 0 0 1-1.64.155 9.7 9.7 0 0 1-3.26-.552 8.7 8.7 0 0 1-2.726-1.548 7.5 7.5 0 0 1-1.862-2.43q-.688-1.438-.688-3.183 0-1.746.688-3.161a7.5 7.5 0 0 1 1.862-2.453 8.2 8.2 0 0 1 2.726-1.547 9.7 9.7 0 0 1 3.26-.552q.82 0 1.64.132a8 8 0 0 1 1.573.42q.776.266 1.441.686.665.397 1.175.928zm23.388 10.542a5 5 0 0 0-.376-.044 8 8 0 0 1-.532-.02 8 8 0 0 1-.555-.02h-1.329q-.267.02-.533.044a4 4 0 0 0-.376.044l-.021-.088a2.5 2.5 0 0 0 .443-.288q.222-.177.245-.663.02-.53.02-1.105.02-.575.02-1.304v-7.801q0-.73-.02-1.283 0-.575-.02-1.104-.02-.487-.244-.663a2 2 0 0 0-.443-.31l.02-.088q.132.044.376.066.267 0 .532.02.289.02.555.02h.775q.266-.02.554-.02.289-.02.533-.044.265-.02.376-.044l.021.089a1.8 1.8 0 0 0-.466.309q-.2.177-.222.662-.02.532-.044 1.106V31.41q.02.573.044 1.104.02.487.222.663.222.177.466.288z"/></svg>