<svg xmlns="http://www.w3.org/2000/svg" width="167" height="111" fill="none"><mask id="a" width="73" height="75" x="47" y="18" maskUnits="userSpaceOnUse" style="mask-type:luminance"><path fill="#fff" d="M47.067 18.5h72.536v74.072H47.067z"/></mask><g fill="#BDBDBD" mask="url(#a)"><path d="M74.683 80.113v-3.268q0-7.89.004-15.78.007-2.595.08-5.19c.024-2.22.65-4.392 1.813-6.286 1.118-1.796 2.699-3.053 4.602-3.93a17.9 17.9 0 0 1 5.571-1.468 21 21 0 0 1 5.497.103c1.631.25 3.268.54 4.745 1.296 3.6 1.844 5.922 4.688 6.626 8.731.204 1.346.299 2.706.286 4.067.01.755.013 1.51-.006 2.266-.012.453-.151.559-.601.563l-4.12.038c-.472.004-.703-.195-.73-.67a43 43 0 0 1-.053-1.79c-.018-1.322 0-2.645-.047-3.967-.094-2.687-1.052-5.009-3.06-6.85a9.28 9.28 0 0 0-10.09-1.375c-2.332 1.201-3.971 3.008-4.62 5.579a12.7 12.7 0 0 0-.277 2.596c-.05 1.304-.042 2.612-.04 3.918.005 3.653.035 7.306.02 10.959a36 36 0 0 1-.184 3.72c-.306 2.829-1.732 4.938-4.268 6.272q-.561.262-1.148.466m.282 2.991c2.355-.459 2.355-.459 5.222-1.718.038.47.066.936.114 1.4.343 3.36 2.04 5.793 5.06 7.305.763.382 1.604.504 2.447.582 1.131.12 2.272.105 3.4-.045 2.289-.334 4.005-1.544 5.288-3.423a9.8 9.8 0 0 0 1.762-5.2c.066-1.563.095-3.128.136-4.692.011-.416-.007-.833.013-1.25.022-.498.271-.736.775-.766.236-.014.474-.015.71-.015q1.611.002 3.222.008c.572.001.806.183.802.746-.009 1.391-.022 2.783-.1 4.173a13.8 13.8 0 0 1-.705 3.766c-1.284 3.687-3.801 6.177-7.462 7.517-2.143.784-4.374 1.045-6.648 1.004a20.1 20.1 0 0 1-7.068-1.339 11.58 11.58 0 0 1-5.743-4.748 9.8 9.8 0 0 1-1.225-3.305m6.047-38.034v-8.83c.013-.564.224-.786.796-.788q2.191-.01 4.383 0c.551.002.747.204.784.753q.008.153.008.307v7.056c-2.058.182-4.074.69-5.971 1.502"/><path d="M83.992 68.32a1.237 1.237 0 0 0-1.247 1.207 1.2 1.2 0 0 0 .767 1.111c.149.059.308.087.468.084a1.24 1.24 0 0 0 1.26-1.202 1.17 1.17 0 0 0-.364-.85 1.27 1.27 0 0 0-.884-.35"/><path d="M86.982 46.838v-.285c-1.14.309-2.2.857-3.11 1.609-1.217 1.043-2.18 2.272-2.641 3.832-.306 1.036-.343 2.11-.35 3.179-.012 2.078.01 4.157.01 6.235q-.001 4.582-.016 9.165a21.5 21.5 0 0 1-.243 3.385 8.2 8.2 0 0 1-3.886 5.87c-1.886 1.188-3.935 1.352-6.052.745-2.506-.718-4.303-2.24-5.211-4.717a17.8 17.8 0 0 1-.913-4.422c-.122-1.26-.199-2.524-.297-3.786-.04-.506-.24-.711-.747-.719-1.452-.022-2.904-.034-4.356-.048q-.107-.002-.212.02c-.44.087-.698.413-.681.99.03.974.058 1.953.176 2.918.41 3.369 1.978 6.147 4.54 8.337 3.78 3.236 8.194 4.12 12.996 3.153 3.517-.707 6.312-2.651 8.55-5.408 1.233-1.52 2.066-3.242 2.228-5.212.126-1.527.2-3.062.205-4.594.023-6.75.01-13.499.01-20.247m-4.074 4.061a.85.85 0 0 1 .326-.112l.029-.005.04.265-.03.003a.514.514 0 0 0-.535.47c.002.163.132.471.592.471h1.905v-.133h.125v.528h-.13v-.12h-1.668a1.2 1.2 0 0 1-.656-.129.757.757 0 0 1 .002-1.238m2.452 4.254v.358h-.127v-.117H82.75v.117h-.127v-.524h.103l.02.012.002.015.002.107h2.103l-1.467-.583 1.394-.583h-2.03v.122h-.127v-.425h.127v.136h2.484v-.136h.127v.32l-1.433.612zm0 2.203v.361h-.127v-.12H82.75v.12h-.127v-.526h.127v.134h2.103l-1.467-.58 1.394-.586h-2.03v.122h-.127v-.426h.127v.136h2.484v-.136h.127v.32l-1.433.613zm-1.263 1.604 1.136.45v-.125h.127v.416h-.127v-.12l-1.357-.54H82.75v.192h-.127v-.64h.127v.169h1.131l1.352-.66v-.121h.127v.532h-.127v-.12zm1.136-5.683v-.12H82.75v.12h-.127v-.516h.127v.127h2.484v-.127h.127v.517zM83.991 70.99a1.48 1.48 0 0 1-1.411-.86 1.468 1.468 0 0 1 1.03-2.048 1.48 1.48 0 0 1 1.535.613c.165.244.253.531.253.825.008.38-.135.749-.398 1.024a1.45 1.45 0 0 1-1.008.445m0-3.136a1.48 1.48 0 0 1-1.411-.859 1.47 1.47 0 0 1 .275-1.626 1.478 1.478 0 0 1 2.543 1.016 1.437 1.437 0 0 1-1.406 1.47m.492-3.489v-.798H82.75v.12h-.127v-.525h.127v.131h2.484v-.131h.127v.526h-.127v-.12h-.6v.798h.6v-.134h.127l-.003.53h-.124v-.12H82.75v.123h-.127v-.532h.127v.133zm.916-1.709v.122h-.58v-.124h.24a1.02 1.02 0 0 0 .184-.592 1.22 1.22 0 0 0-1.253-1.169 1.213 1.213 0 0 0-1.244 1.2c-.002.28.095.55.276.765l.017.024-.094.085-.019-.021a1.24 1.24 0 0 1-.338-.851 1.4 1.4 0 0 1 .855-1.343 1.41 1.41 0 0 1 1.865.79 1.4 1.4 0 0 1 .091.553c0 .192-.037.383-.11.562z"/><path d="M83.992 65.184a1.21 1.21 0 0 0-1.15.727 1.2 1.2 0 0 0 .666 1.591c.15.06.31.088.472.084a1.24 1.24 0 0 0 1.26-1.202 1.17 1.17 0 0 0-.364-.851 1.27 1.27 0 0 0-.884-.349m6.446-38.367a4.13 4.13 0 0 1-2.691.964c-2.372 0-4.22-1.912-4.22-4.351 0-2.398 1.807-4.326 4.111-4.385a3.6 3.6 0 0 1 2.086.646v.838h.437V18.5h-.438v.386a5.4 5.4 0 0 0-1.968-.386c-2.85 0-5.172 2.205-5.172 4.921 0 2.708 2.321 4.913 5.172 4.913a4.4 4.4 0 0 0 2.994-1.182l.075-.067-.302-.327zm-12.572-7.739h.437l-1.58 3.975-1.994-3.975h.42v-.444h-1.883v.444h.437l2.321 4.728v3.958h-.597v.445h2.254v-.445h-.673v-3.94l1.9-4.746h.42v-.444h-1.462zm-21.57 0h.421v-.444H54.91v.444h.446v8.686h-.446v.445h1.816v-.445h-.428zm12.782 4.57-2.153-5.014H65.8v.444h.47v8.686h-.47v.445h1.497v-.445h-.43v-7.1l2.053 4.88 2.051-5.133v7.353h-.47v.445h1.849v-.445h-.42v-8.686h.42v-.444h-1.27zm-7.753 0-2.153-5.014h-1.126v.444h.47v8.686h-.479v.445h1.497v-.445h-.42v-7.1l2.052 4.88 2.051-5.133v7.353l-.378.009-.05.008-.043.067v.36h1.833v-.444h-.412v-8.686h.42v-.444h-1.27zm35.385-4.57h.43v-.444h-1.867v.444h.461v2.096h-2.8v-2.096h.42v-.444h-1.857v.444h.47v8.686h-.47v.445h1.85v-.445h-.412v-6.062h2.8v6.062h-.461v.444h1.867v-.444h-.43zm-44.988-.008h.471v6.665c0 1.61-1.085 2.062-1.657 2.07-.53-.008-1.564-.419-1.656-1.87l-.009-.109-.925.144.017.1c.053.403.188.791.396 1.14a2.66 2.66 0 0 0 2.176 1.132 2.67 2.67 0 0 0 2.18-1.123c.42-.654.454-1.425.454-2.297v-5.835h.42v-.453h-1.867zm51.127-.57c-2.85 0-5.171 2.205-5.171 4.921 0 2.708 2.32 4.922 5.171 4.922s5.172-2.205 5.172-4.922-2.32-4.921-5.172-4.921m-.025 9.28c-2.355 0-4.196-1.91-4.196-4.359a4.43 4.43 0 0 1 1.228-3.093 4.12 4.12 0 0 1 2.993-1.275c2.33 0 4.23 1.979 4.23 4.41a4.23 4.23 0 0 1-1.221 3.047 4.26 4.26 0 0 1-3.034 1.27m11.058-9.28c-2.851 0-5.172 2.205-5.172 4.921 0 2.708 2.321 4.922 5.172 4.922s5.172-2.205 5.172-4.922-2.321-4.921-5.172-4.921m.017 9.28c-2.346-.007-4.247-1.97-4.247-4.35a4.43 4.43 0 0 1 1.228-3.094 4.1 4.1 0 0 1 2.994-1.283c2.33 0 4.229 1.979 4.229 4.41 0 2.406-1.841 4.301-4.205 4.318z"/></g></svg>