<svg xmlns="http://www.w3.org/2000/svg" width="271" height="26" fill="none" viewBox="80 0 271 26"><path fill="#E09370" fill-rule="evenodd" d="M98.496 7.503c-4.57 4.568-11.693 5.025-16.773 1.37C83.406 4.279 87.818 1 92.995 1H105l-2.807 2.807q-.473.473-.886.98v-.095zM88.75 16.68A11.96 11.96 0 0 1 81 13.356c.136 4.669 2.939 8.67 6.939 10.53-.466-2.35-.234-4.86.812-7.206m3.766 8.31q.238.01.478.01H105l-2.807-2.807a12.96 12.96 0 0 1-3.803-8.818 13.02 13.02 0 0 0-5.873 11.616" clip-rule="evenodd"/><path fill="#12070B" d="M114.04 18.9q.56-.02.86-.18.3-.18.42-.6.12-.44.12-1.2V8.94q0-.5.02-.96.04-.46.06-.72-.34.02-.78.04-.44 0-.7.02V6l5.44-.02q1.92 0 3.38.54 1.48.52 2.46 1.48a6.4 6.4 0 0 1 1.48 2.22q.52 1.26.52 2.7 0 1.26-.46 2.52a6.7 6.7 0 0 1-1.38 2.3q-.92 1.02-2.4 1.64-1.46.62-3.48.62h-5.56zm3.92-1.88q0 .54-.02 1a7 7 0 0 1-.06.72q.32 0 .7.02.38 0 .74.02h.54q1.16 0 2.04-.46a4.24 4.24 0 0 0 1.46-1.24q.6-.78.9-1.78.3-1.02.3-2.14 0-1.98-.62-3.3-.6-1.34-1.74-2.02-1.14-.7-2.82-.72-.56-.02-.88.16t-.44.6q-.1.42-.1 1.18zm10.9 1.92q.58 0 .82-.24.24-.26.3-.72t.06-1.04v-3.76q0-.36.02-.76t.06-.82q-.34.02-.74.04-.4 0-.66.02v-1.28h.74q.8 0 1.34-.18.54-.2.76-.4h.84q.039.24.06.76t.02 1.04q.459-.6.96-1.02a3.8 3.8 0 0 1 1.02-.66q.54-.24 1.1-.24.64 0 1.12.36.5.36.5 1.16 0 .26-.14.56-.12.3-.4.5-.261.2-.72.2-.42 0-.8-.26-.36-.28-.38-.88-.42-.02-.88.3-.44.32-.8.78t-.56.94l.02 3.8a19 19 0 0 1-.08 1.64q.32-.04.68-.04.36-.02.6-.02V20h-4.86zm13.901 1.38q-1.44 0-2.56-.64a4.54 4.54 0 0 1-1.74-1.84q-.62-1.2-.62-2.82 0-1.4.62-2.62a5.04 5.04 0 0 1 1.74-1.96q1.14-.76 2.64-.76.84 0 1.62.24t1.4.8.98 1.48q.38.92.36 2.24l-6.72.12q0 1.24.28 2.2.3.94.96 1.5.66.54 1.74.54.48 0 1.02-.16.56-.18 1.1-.52.54-.36.96-.88l.76.7q-.66.96-1.46 1.48a4.9 4.9 0 0 1-1.6.7 6 6 0 0 1-1.48.2m-2.18-6.96h4.16q-.021-.8-.24-1.34-.201-.56-.6-.84-.4-.3-.98-.3-.98 0-1.58.66-.58.64-.76 1.82m12.621 6.96q-.92 0-1.72-.24t-1.28-.58l.06.64h-1.3l-.1-3.44h1.08q.06.68.48 1.24.42.54 1.08.86.68.3 1.5.3.4 0 .76-.12.38-.12.62-.38a1 1 0 0 0 .26-.7.94.94 0 0 0-.3-.72q-.28-.28-.8-.52t-1.22-.5q-.62-.24-1.24-.5a6.2 6.2 0 0 1-1.14-.62 3.1 3.1 0 0 1-.84-.92q-.32-.54-.32-1.32 0-.54.2-1.08t.64-1q.44-.48 1.12-.76.7-.28 1.7-.28.54 0 1.22.18.68.16 1.2.56l-.02-.64h1.3v3.52h-1.08a3.1 3.1 0 0 0-.44-1.24 2.5 2.5 0 0 0-.9-.88q-.56-.32-1.34-.32-.64 0-1.08.32-.44.3-.44.9 0 .5.34.82t.92.54l1.26.48a9.5 9.5 0 0 1 1.7.76q.78.44 1.24 1.06t.46 1.54q0 1.04-.52 1.72a3.26 3.26 0 0 1-1.34 1q-.82.32-1.72.32m9.551 0q-.92 0-1.72-.24t-1.28-.58l.06.64h-1.3l-.1-3.44h1.08q.06.68.48 1.24.42.54 1.08.86.68.3 1.5.3.4 0 .76-.12.38-.12.62-.38a1 1 0 0 0 .26-.7.94.94 0 0 0-.3-.72q-.28-.28-.8-.52t-1.22-.5q-.62-.24-1.24-.5a6.2 6.2 0 0 1-1.14-.62 3.1 3.1 0 0 1-.84-.92q-.32-.54-.32-1.32 0-.54.2-1.08t.64-1q.44-.48 1.12-.76.7-.28 1.7-.28.54 0 1.22.18.68.16 1.2.56l-.02-.64h1.3v3.52h-1.08a3.1 3.1 0 0 0-.44-1.24 2.5 2.5 0 0 0-.9-.88q-.56-.32-1.34-.32-.64 0-1.08.32-.44.3-.44.9 0 .5.34.82t.92.54l1.26.48a9.5 9.5 0 0 1 1.7.76q.78.44 1.24 1.06t.46 1.54q0 1.04-.52 1.72-.52.66-1.34 1-.82.32-1.72.32m5.31-.32v-1.1q.56-.02.86-.18.3-.18.42-.6.12-.44.12-1.2V8.94q0-.5.02-.96.04-.46.06-.72-.339.02-.78.04a10 10 0 0 0-.7.02V6h5.32v1.1q-.54.02-.86.2-.3.16-.42.58t-.12 1.2v7.96q0 .54-.02 1a7 7 0 0 1-.06.7l3.04-.02q1.2-.02 1.86-.82t.66-2.48h1.12l-.12 4.58zm12.873 5.42q-.72 0-1.22-.4t-.5-1.1q0-.48.32-.86.32-.36.82-.38.44-.02.7.28.28.32.28.76v.12a.6.6 0 0 1-.02.16h.14q.201-.04.42-.3.24-.24.44-.66.24-.46.5-1.14.26-.66.5-1.48l-3.14-6.46q-.54-1.12-.74-1.72-.18-.6-.26-1l-.92.04V10h4.7v1.06h-.04q-.759.06-.84.58-.08.5.26 1.24l2.1 4.66q.28-.78.62-1.92.36-1.14.8-2.4.1-.32.24-.7.16-.4.32-.76t.32-.54l-1.22.06V10h3.42v1.06q-.66.18-1.06.82-.38.62-.72 1.56l-2.5 7.08a32 32 0 0 1-1.08 2.72q-.5 1.1-1.12 1.64-.6.54-1.52.54"/></svg>