<svg xmlns="http://www.w3.org/2000/svg" width="167" height="111" fill="none"><path fill="#BDBDBD" d="m98.135 18.5 15.805.001c.003 1.183-.006 2.366.005 3.55-1.338.058-2.707.208-3.939.766-1.25.56-2.298 1.579-2.838 2.84Q97.56 48.18 87.962 70.704c-.11.246-.2.502-.329.74-2.291-.027-4.583-.004-6.875-.012-1.01-2.004-2.006-4.015-3.025-6.014-1.17 3.122-2.345 6.242-3.513 9.364h22.675c1.384.019 2.81-.039 4.104-.578 2.151-.862 3.864-2.527 5.258-4.333 1.683-2.188 2.96-4.65 4.098-7.154 1.276-.01 2.551.004 3.827.002a4178 4178 0 0 1-7.29 15.439H54.64c.424-1.104.827-2.217 1.282-3.31.028-.112.169-.084.254-.095 2.174-.016 4.363-.1 6.497-.551 1.11-.26 2.26-.606 3.114-1.397.451-.43.592-1.057.742-1.636l6.175-16.463c-4.35-9.242-8.715-18.479-13.068-27.72-.35-.808-.813-1.608-1.54-2.135-1.507-1.124-3.464-1.267-5.277-1.339l-.001-3.973q9.173-.002 18.346 0 .001 1.986-.001 3.973c-.797.05-1.643.038-2.364.43a.884.884 0 0 0-.477.98c.113.632.614 1.083.868 1.654q3.872 8.319 7.755 16.635 1.946-5.428 3.899-10.852c.191-.502.259-1.083.04-1.588-.17-.4-.56-.646-.943-.812-.745-.307-1.565-.304-2.354-.36a257 257 0 0 1 1.227-3.347c.097-.062.231-.015.342-.03 6.205.003 12.41 0 18.616.002a880 880 0 0 0-1.28 3.37c-1.494.07-3.035.107-4.436.69-.642.267-1.25.677-1.63 1.27-.263.435-.427.92-.604 1.393-2.592 7.05-5.209 14.09-7.772 21.15 1.42 3.2 2.9 6.372 4.348 9.559 5.26-12.383 10.518-24.767 15.784-37.148.354-.744.932-1.424.978-2.28.043-.67-.455-1.25-1.033-1.524-1.246-.573-2.646-.601-3.992-.65zm9.564 66.675a763 763 0 0 1 4.952 5.17c-.002-1.608.007-3.216.006-4.823q.426 0 .853-.006v6.883c-1.662-1.706-3.299-3.435-4.953-5.149.003 1.617-.003 3.235-.004 4.853l-.854.002zm-48.337.236c1.829-.28 3.764 1.147 3.927 3.007.154 1.064-.26 2.174-1.041 2.907-1.285 1.253-3.596 1.23-4.843-.068a3.36 3.36 0 0 1-1.017-2.526c.018-1.63 1.37-3.087 2.974-3.32m0 .842c-1.065.174-1.931 1.106-2.08 2.162-.203 1.2.54 2.492 1.702 2.884 1.017.384 2.255.023 2.908-.843.845-1.056.702-2.76-.337-3.638-.584-.53-1.428-.704-2.193-.565m13.21-.488c.938-.701 2.47-.411 3.01.65l-.677.381c-.406-.633-1.397-.788-1.943-.25-.232.169-.206.477-.182.73.067.332.42.472.68.627.672.353 1.479.556 1.95 1.195.527.713.44 1.775-.134 2.435-.6.724-1.697.9-2.536.521-.644-.317-1.042-.987-1.171-1.675.288-.068.578-.13.866-.195.03.627.517 1.26 1.181 1.272.896.097 1.609-1.064 1.087-1.805-.557-.756-1.631-.767-2.272-1.42-.755-.615-.679-1.942.142-2.466m30.588-.359c1.198-.15 2.437.402 3.173 1.348 1.061 1.323.891 3.435-.368 4.574-.719.708-1.777 1-2.769.895-.981-.064-1.9-.612-2.466-1.406-.61-.847-.768-1.978-.479-2.973.377-1.29 1.58-2.27 2.909-2.438m-.147.859c-1.322.224-2.267 1.628-2.035 2.933.147 1.256 1.342 2.278 2.606 2.254.862.014 1.684-.473 2.149-1.185.706-1.02.52-2.528-.39-3.368-.595-.601-1.515-.804-2.33-.634m-49.508-.748h.818l.001 5.836q1.017.002 2.032 0 .003.375.001.75-1.427.003-2.852 0zm10.446.006q.434-.003.867-.001c.003 1.296-.003 2.593.004 3.89.013.57.083 1.196.487 1.635.644.629 1.907.539 2.356-.276.226-.383.292-.837.286-1.275q-.006-1.986-.004-3.974.432-.002.866 0c0 1.352.003 2.704 0 4.056.001.614-.106 1.263-.5 1.756-.845 1.168-2.806 1.235-3.733.131-.44-.46-.621-1.108-.627-1.731-.004-1.404-.001-2.808-.002-4.211m5.93-.005q.426-.004.854 0v6.587l-.855-.002zm8.555.005q.47-.01.94-.007a725 725 0 0 1 1.948 4.812c.643-1.6 1.305-3.193 1.933-4.799.322-.026.645-.008.968-.013q-1.44 3.495-2.892 6.984c-.985-2.317-1.935-4.65-2.897-6.977m6.18-.007q.426.006.853.006c.01 1.276-.001 2.553.01 3.83.02.605.066 1.292.53 1.742.536.457 1.389.485 1.96.078.333-.236.516-.628.588-1.019.114-.672.073-1.356.081-2.035q.006-1.297.004-2.595.41-.004.822-.001c.012 1.2.002 2.398.005 3.598.02.744-.004 1.551-.458 2.18-.795 1.143-2.626 1.267-3.632.337-.504-.464-.756-1.149-.76-1.824-.008-1.433-.002-2.865-.003-4.297m5.92.006q.445 0 .891-.006v6.588h-.895c-.003-2.194.007-4.388.005-6.582m1.425 0c2.663.002 5.327-.005 7.99-.004v.789h-1.53q-.003 2.9-.002 5.797h-.89c-.002-1.932.005-3.864-.004-5.796H94.39v5.796h-.819v-5.796l-1.608-.001z"/></svg>