<svg xmlns="http://www.w3.org/2000/svg" width="50" height="50" fill="none" viewBox="220 0 50 120"><mask id="a" fill="#fff"><path fill-rule="evenodd" d="M.892 51.71h196.213c28.186 0 51.035 22.848 51.035 51.034 0-28.186 22.849-51.035 51.035-51.035h177.194-177.194c-28.186 0-51.035-22.85-51.035-51.035 0 28.186-22.849 51.035-51.035 51.035z" clip-rule="evenodd"/></mask><path fill="#E09370" fill-rule="evenodd" d="M.892 51.71h196.213c28.186 0 51.035 22.848 51.035 51.034 0-28.186 22.849-51.035 51.035-51.035h177.194-177.194c-28.186 0-51.035-22.85-51.035-51.035 0 28.186-22.849 51.035-51.035 51.035z" clip-rule="evenodd"/><path fill="#E09370" d="M197.105 51.71v4.639zm102.07 0v-4.64zM.892 56.348h196.213v-9.28H.892zm196.213 0c25.624 0 46.396 20.772 46.396 46.395h9.279c0-30.748-24.927-55.674-55.675-55.674zm55.675 46.395c0-25.623 20.772-46.395 46.395-46.395v-9.28c-30.748 0-55.674 24.927-55.674 55.675zm46.395-46.395h177.194v-9.28H299.175zm177.194-9.28H299.175v9.28h177.194zm-177.194 0c-25.623 0-46.395-20.772-46.395-46.395h-9.279c0 30.748 24.926 55.675 55.674 55.675zM243.501.674h9.279zm0 0c0 25.623-20.772 46.396-46.396 46.396v9.279c30.748 0 55.675-24.927 55.675-55.675zM197.105 47.07H.892v9.279h196.213z" mask="url(#a)"/></svg>