<svg width="350" height="103" viewBox="0 0 477 103" fill="none" xmlns="http://www.w3.org/2000/svg">
<mask id="path-1-inside-1_318_199" fill="white">
<path fill-rule="evenodd" clip-rule="evenodd" d="M0.891846 51.7091L197.105 51.7091C225.291 51.7091 248.14 74.5584 248.14 102.744C248.14 74.5583 270.989 51.7091 299.175 51.7091H476.369L299.175 51.7091C270.989 51.7091 248.14 28.8598 248.14 0.673813V0.673867C248.14 28.8599 225.291 51.7091 197.105 51.7091H0.891846Z"/>
</mask>
<path fill-rule="evenodd" clip-rule="evenodd" d="M0.891846 51.7091L197.105 51.7091C225.291 51.7091 248.14 74.5584 248.14 102.744C248.14 74.5583 270.989 51.7091 299.175 51.7091H476.369L299.175 51.7091C270.989 51.7091 248.14 28.8598 248.14 0.673813V0.673867C248.14 28.8599 225.291 51.7091 197.105 51.7091H0.891846Z" fill="#E09370"/>
<path d="M197.105 51.7091L197.105 56.3487H197.105V51.7091ZM299.175 51.7091L299.175 47.0695H299.175V51.7091ZM0.891845 56.3486L197.105 56.3487L197.105 47.0695L0.891847 47.0695L0.891845 56.3486ZM197.105 56.3487C222.729 56.3487 243.501 77.1207 243.501 102.744H252.78C252.78 71.996 227.853 47.0695 197.105 47.0695V56.3487ZM252.78 102.744C252.78 77.1207 273.552 56.3487 299.175 56.3487V47.0695C268.427 47.0695 243.501 71.9959 243.501 102.744H252.78ZM299.175 56.3487H476.369V47.0695H299.175V56.3487ZM476.369 47.0695L299.175 47.0695L299.175 56.3486L476.369 56.3487L476.369 47.0695ZM299.175 47.0695C273.552 47.0695 252.78 26.2974 252.78 0.673813H243.501C243.501 31.4222 268.427 56.3486 299.175 56.3486V47.0695ZM243.501 0.673813V0.673867H252.78V0.673813H243.501ZM243.501 0.673867C243.501 26.2975 222.729 47.0695 197.105 47.0695V56.3486C227.853 56.3486 252.78 31.4222 252.78 0.673867H243.501ZM197.105 47.0695H0.891846V56.3486H197.105V47.0695Z" fill="#E09370" mask="url(#path-1-inside-1_318_199)"/>
</svg>
