<svg xmlns="http://www.w3.org/2000/svg" width="24" height="24" fill="none"><path fill="#1B1314" fill-rule="evenodd" d="M12 2.75a4.25 4.25 0 1 0 0 8.5 4.25 4.25 0 0 0 0-8.5M6.25 7a5.75 5.75 0 1 1 11.5 0 5.75 5.75 0 0 1-11.5 0m2.02 7.25h7.46c.28 0 .473 0 .656.018a3.75 3.75 0 0 1 2.923 1.927c.088.16.164.338.274.596l.016.035.034.081c.231.538.386.899.46 1.2a3.75 3.75 0 0 1-3.028 4.592c-.306.051-.699.051-1.285.051H8.22c-.586 0-.978 0-1.285-.05a3.75 3.75 0 0 1-3.028-4.592c.074-.302.229-.663.46-1.201l.035-.081.014-.035a7 7 0 0 1 .275-.596 3.75 3.75 0 0 1 2.923-1.927c.183-.018.375-.018.656-.018m.038 1.5c-.333 0-.448 0-.548.01a2.25 2.25 0 0 0-1.754 1.157 6 6 0 0 0-.226.5c-.278.648-.376.883-.416 1.048a2.25 2.25 0 0 0 1.817 2.755c.167.027.421.03 1.127.03h7.384c.706 0 .96-.003 1.127-.03a2.25 2.25 0 0 0 1.817-2.755c-.04-.165-.138-.4-.416-1.048a6 6 0 0 0-.226-.5 2.25 2.25 0 0 0-1.754-1.156c-.1-.01-.215-.011-.548-.011z" clip-rule="evenodd"/></svg>