<svg xmlns="http://www.w3.org/2000/svg" width="168" height="47" fill="none"><rect width="168" height="47" fill="#12070B" rx="8"/><path fill="#F4F4F4" d="M47.636 24.25c.034 3.633 3.229 4.841 3.264 4.857-.027.085-.51 1.722-1.683 3.413-1.013 1.462-2.065 2.919-3.722 2.949-1.628.03-2.152-.953-4.014-.953-1.86 0-2.442.923-3.983.982-1.6.06-2.818-1.58-3.84-3.037-2.088-2.98-3.684-8.42-1.541-12.092 1.064-1.824 2.967-2.979 5.032-3.008 1.57-.03 3.053 1.043 4.013 1.043s2.76-1.29 4.655-1.1c.793.032 3.018.315 4.447 2.38-.115.07-2.655 1.53-2.628 4.566m-3.06-8.918c.85-1.014 1.421-2.427 1.265-3.832-1.224.049-2.704.805-3.582 1.819-.787.898-1.476 2.335-1.29 3.712 1.364.105 2.758-.684 3.608-1.699M65.45 13.53q0 .9-.28 1.57-.28.66-.79 1.1-.51.43-1.22.65-.71.21-1.56.21-.42 0-.93-.04a5 5 0 0 1-.91-.13v-6.72q.41-.1.91-.13.51-.04.93-.04a5.3 5.3 0 0 1 1.56.22q.71.21 1.22.65.51.43.79 1.1.28.66.28 1.56m-3.77 2.68q1.38 0 2.06-.7.68-.71.68-1.98t-.68-1.97q-.68-.71-2.06-.71-.41 0-.64.01-.22.01-.31.02v5.3q.09.01.31.02.23.01.64.01m9.739-1.81q0 .62-.18 1.12t-.51.86q-.32.36-.77.56-.45.19-.98.19t-.98-.19a2.3 2.3 0 0 1-.78-.56 2.6 2.6 0 0 1-.5-.86 3.3 3.3 0 0 1-.18-1.12q0-.61.18-1.11.18-.51.5-.87.33-.36.78-.55.45-.2.98-.2t.98.2q.45.19.77.55.33.36.51.87.18.5.18 1.11m-.97 0q0-.88-.4-1.39-.39-.52-1.07-.52t-1.08.52q-.39.51-.39 1.39t.39 1.4q.4.51 1.08.51t1.07-.51q.4-.52.4-1.4M76.85 17a49 49 0 0 1-.6-1.64 30 30 0 0 1-.57-1.93 30 30 0 0 1-.57 1.93q-.31.92-.59 1.64h-.81a26 26 0 0 1-.9-2.35q-.44-1.32-.83-2.85h1q.1.47.24 1.02t.29 1.1q.16.55.33 1.06t.32.89q.171-.47.33-.99a32 32 0 0 0 .6-2.11q.141-.52.24-.97h.77q.09.45.22.97.13.51.28 1.05.15.53.31 1.06.17.52.34.99.15-.38.31-.89.171-.51.33-1.06.16-.55.3-1.1.141-.55.24-1.02h.96q-.39 1.53-.83 2.85t-.9 2.35zm3.524-5.05q.32-.08.85-.17t1.22-.09q.62 0 1.03.18.41.17.65.49.25.31.35.75t.1.97V17h-.93v-2.72q0-.48-.07-.82-.06-.34-.21-.55a.82.82 0 0 0-.4-.3 1.7 1.7 0 0 0-.62-.1 5 5 0 0 0-.62.04 3 3 0 0 0-.42.06V17h-.93zm7.302 5.15q-.86-.02-1.22-.37t-.36-1.09V9.4l.93-.16v6.25q0 .23.04.38t.13.24.24.14q.15.04.37.07zm5.764-2.7q0 .62-.18 1.12t-.51.86q-.32.36-.77.56-.45.19-.98.19t-.98-.19a2.3 2.3 0 0 1-.78-.56 2.6 2.6 0 0 1-.5-.86 3.3 3.3 0 0 1-.18-1.12q0-.61.18-1.11.18-.51.5-.87.33-.36.78-.55.45-.2.98-.2t.98.2q.45.19.77.55.33.36.51.87.18.5.18 1.11m-.97 0q0-.88-.4-1.39-.39-.52-1.07-.52t-1.08.52q-.39.51-.39 1.39t.39 1.4q.4.51 1.08.51t1.07-.51q.4-.52.4-1.4m4.039 1.93q.33 0 .58-.01.26-.02.43-.06v-1.55a1.1 1.1 0 0 0-.33-.08 3.6 3.6 0 0 0-.99-.01q-.23.03-.43.13a.86.86 0 0 0-.32.26.66.66 0 0 0-.13.43q0 .5.32.7.32.19.87.19m-.08-4.66q.56 0 .94.15.39.14.62.41.24.26.34.63.1.36.1.8v3.25q-.12.02-.34.06-.21.03-.48.06t-.59.05q-.31.03-.62.03-.44 0-.81-.09a1.9 1.9 0 0 1-.64-.28 1.35 1.35 0 0 1-.42-.52q-.15-.32-.15-.77 0-.43.17-.74.18-.31.48-.5a2.2 2.2 0 0 1 .7-.28q.4-.09.84-.09.14 0 .29.02.15.01.28.04a5 5 0 0 1 .38.07v-.26a2 2 0 0 0-.05-.45 1 1 0 0 0-.18-.4.85.85 0 0 0-.36-.28q-.22-.11-.58-.11-.46 0-.81.07-.34.06-.51.13l-.11-.77q.18-.08.6-.15.42-.08.91-.08m6.904 1.23a1.9 1.9 0 0 0-.49-.27 1.8 1.8 0 0 0-.7-.13q-.399 0-.69.15-.28.14-.46.4-.18.25-.26.6a3.4 3.4 0 0 0-.08.75q0 .91.45 1.41.45.49 1.2.49.381 0 .63-.03a3 3 0 0 0 .4-.08zm0-3.5.93-.16v7.61a9 9 0 0 1-.82.18q-.5.09-1.15.09-.6 0-1.08-.19a2.3 2.3 0 0 1-.82-.54 2.5 2.5 0 0 1-.53-.85q-.18-.51-.18-1.14 0-.6.15-1.1.16-.5.46-.86t.73-.56q.44-.2 1-.2.45 0 .79.12.35.12.52.23zm9.434 5q0 .62-.18 1.12t-.51.86q-.32.36-.77.56-.45.19-.98.19a2.5 2.5 0 0 1-.98-.19 2.3 2.3 0 0 1-.78-.56 2.6 2.6 0 0 1-.5-.86 3.3 3.3 0 0 1-.18-1.12q0-.61.18-1.11.18-.51.5-.87.33-.36.78-.55.45-.2.98-.2t.98.2q.45.19.77.55.33.36.51.87.18.5.18 1.11m-.97 0q0-.88-.4-1.39-.39-.52-1.07-.52-.681 0-1.08.52-.39.51-.39 1.39t.39 1.4q.399.51 1.08.51.68 0 1.07-.51.4-.52.4-1.4m2.278-2.45q.32-.08.85-.17t1.22-.09q.62 0 1.03.18.41.17.65.49.25.31.35.75t.1.97V17h-.93v-2.72q0-.48-.07-.82-.06-.34-.21-.55a.82.82 0 0 0-.4-.3 1.7 1.7 0 0 0-.62-.1 5 5 0 0 0-.62.04 3 3 0 0 0-.42.06V17h-.93zm8.927-.15h1.97v.78h-1.97v2.4q0 .39.06.65.06.25.18.4.12.14.3.2t.42.06q.42 0 .67-.09l.36-.14.18.77a3 3 0 0 1-.49.17q-.35.11-.8.11-.53 0-.88-.13a1.3 1.3 0 0 1-.55-.41q-.21-.27-.3-.66a4.7 4.7 0 0 1-.08-.92v-4.64l.93-.16zm3.153 5.2V9.4l.93-.16v2.66q.26-.1.55-.15.3-.06.59-.06.62 0 1.03.18.41.17.65.49.25.31.35.75t.1.97V17h-.93v-2.72q0-.48-.07-.82-.06-.34-.21-.55a.82.82 0 0 0-.4-.3 1.7 1.7 0 0 0-.62-.1q-.15 0-.31.02t-.31.05q-.14.02-.26.05-.11.03-.16.05V17zm5.423-2.59q0-.69.2-1.2.2-.52.53-.86t.76-.51.88-.17q1.05 0 1.61.66.56.65.56 1.99v.16q0 .09-.01.17h-3.56q.06.81.47 1.23t1.28.42q.49 0 .82-.08.34-.09.51-.17l.13.78q-.17.09-.6.19-.42.1-.96.1-.68 0-1.18-.2a2.25 2.25 0 0 1-.81-.57 2.4 2.4 0 0 1-.48-.85 3.8 3.8 0 0 1-.15-1.09m3.57-.51q.01-.63-.32-1.03-.32-.41-.89-.41-.32 0-.57.13-.24.12-.41.32a1.6 1.6 0 0 0-.27.46q-.09.26-.12.53zM66.502 34q-.196-.574-.406-1.134t-.406-1.148h-4.088q-.196.588-.406 1.162L60.804 34H58.97q.546-1.554 1.036-2.87t.952-2.492q.476-1.176.938-2.24t.952-2.1h1.666q.49 1.035.952 2.1.462 1.064.924 2.24.476 1.176.966 2.492.504 1.316 1.05 2.87zm-2.856-7.826a60 60 0 0 0-.742 1.806q-.405 1.065-.854 2.31h3.192a95 95 0 0 0-.868-2.324 56 56 0 0 0-.728-1.792m10.76 4.2q0-1.134-.518-1.764-.504-.63-1.638-.63-.237 0-.504.028-.252.014-.504.084v4.186q.225.154.588.294.378.126.798.126.924 0 1.344-.63.435-.63.434-1.694m1.736-.028q0 .84-.224 1.54-.21.7-.616 1.204-.405.504-1.022.784-.601.28-1.372.28-.517 0-.952-.126a3.6 3.6 0 0 1-.714-.28v2.842h-1.694v-9.674q.519-.14 1.274-.266a10 10 0 0 1 1.596-.126q.868 0 1.554.266.687.266 1.162.77.49.49.742 1.204.266.7.266 1.582m6.604.028q0-1.134-.518-1.764-.504-.63-1.638-.63-.239 0-.504.028-.252.014-.504.084v4.186q.225.154.588.294.378.126.798.126.924 0 1.344-.63.435-.63.434-1.694m1.736-.028q0 .84-.224 1.54-.21.7-.616 1.204-.405.504-1.022.784-.602.28-1.372.28-.518 0-.952-.126a3.6 3.6 0 0 1-.714-.28v2.842h-1.694v-9.674q.519-.14 1.274-.266a10 10 0 0 1 1.596-.126q.868 0 1.554.266a3.1 3.1 0 0 1 1.162.77q.49.49.742 1.204.266.7.266 1.582m7.45 2.338q.951 0 1.386-.322t.434-.91q0-.35-.154-.602a1.36 1.36 0 0 0-.42-.448 3 3 0 0 0-.658-.378 9 9 0 0 0-.896-.35 15 15 0 0 1-.98-.392 3.6 3.6 0 0 1-.826-.546 2.6 2.6 0 0 1-.574-.77q-.21-.448-.21-1.078 0-1.315.91-2.058.909-.756 2.478-.756.91 0 1.61.21.714.195 1.12.434l-.546 1.428a4.2 4.2 0 0 0-1.05-.406 4.8 4.8 0 0 0-1.162-.14q-.714 0-1.12.294-.392.294-.392.826 0 .322.126.56.14.225.378.406.252.181.574.336.335.154.728.294.685.251 1.218.518.546.252.91.616.378.35.574.84.196.476.196 1.162 0 1.316-.938 2.044-.925.714-2.716.714-.603 0-1.106-.084a7 7 0 0 1-.882-.182 8 8 0 0 1-.658-.224 5 5 0 0 1-.448-.224l.518-1.442q.378.21 1.022.42.643.21 1.554.21m5.04-7.938 1.694-.28v2.212h2.604v1.414h-2.604v2.982q0 .882.28 1.26t.952.378q.462 0 .812-.098.364-.098.574-.182l.28 1.344a6 6 0 0 1-.77.252q-.476.14-1.12.14-.784 0-1.316-.21-.517-.21-.826-.602a2.5 2.5 0 0 1-.434-.966 6 6 0 0 1-.126-1.302zm12.394 5.586q0 .868-.252 1.582a3.5 3.5 0 0 1-.714 1.218 3.2 3.2 0 0 1-1.12.784q-.645.28-1.428.28-.784 0-1.428-.28a3.2 3.2 0 0 1-1.106-.784 3.7 3.7 0 0 1-.728-1.218 4.7 4.7 0 0 1-.252-1.582q0-.868.252-1.568.266-.714.728-1.218.475-.504 1.12-.77.643-.28 1.414-.28t1.414.28a3.05 3.05 0 0 1 1.12.77q.462.504.714 1.218.266.7.266 1.568m-1.736 0q0-1.092-.476-1.722-.462-.645-1.302-.644-.84 0-1.316.644-.462.63-.462 1.722 0 1.105.462 1.75.476.645 1.316.644.84 0 1.302-.644.476-.645.476-1.75m7.653-2.128a5 5 0 0 0-.588-.14 3.8 3.8 0 0 0-1.456-.028q-.309.056-.434.098V34h-1.694v-6.972a9 9 0 0 1 1.218-.336 7.4 7.4 0 0 1 1.638-.168q.168 0 .392.028.223.014.448.056.224.028.434.084.21.042.336.084zm1.068 2.17q0-.966.28-1.694.294-.728.77-1.204.477-.49 1.092-.728a3.3 3.3 0 0 1 1.26-.252q1.512 0 2.352.938.854.938.854 2.8 0 .14-.014.322 0 .168-.014.308h-4.83q.07.882.616 1.372.56.476 1.61.476.616 0 1.12-.112.519-.112.812-.238l.224 1.386a3 3 0 0 1-.392.154 5 5 0 0 1-.56.126 6.5 6.5 0 0 1-1.414.154q-.966 0-1.68-.28a3.24 3.24 0 0 1-1.176-.798 3.4 3.4 0 0 1-.686-1.204 5 5 0 0 1-.224-1.526m4.914-.756q0-.35-.098-.658a1.45 1.45 0 0 0-.294-.546 1.2 1.2 0 0 0-.462-.364 1.4 1.4 0 0 0-.644-.14q-.392 0-.686.154-.294.14-.504.378-.195.238-.308.546a3 3 0 0 0-.154.63z"/></svg>