<svg xmlns="http://www.w3.org/2000/svg" width="20" height="20" fill="none"><path fill="#1B1314" fill-rule="evenodd" d="M9.903 1.875c-.681 0-1.146 0-1.545.106a3.13 3.13 0 0 0-2.21 2.21c-.077.287-.098.607-.104 1.018-.676.005-1.18.033-1.621.2a3.13 3.13 0 0 0-1.655 1.448c-.27.502-.352 1.121-.471 2.023l-.687 5.149a24 24 0 0 0-.177 1.549c-.025.422-.011.798.098 1.159.26.862.88 1.57 1.7 1.942.343.156.715.22 1.136.25.412.03.923.03 1.559.03h8.148c.636 0 1.146 0 1.559-.03.421-.03.793-.094 1.136-.25a3.13 3.13 0 0 0 1.7-1.942c.11-.361.123-.737.098-1.16a24 24 0 0 0-.177-1.548l-.687-5.15c-.12-.9-.202-1.52-.471-2.022a3.13 3.13 0 0 0-1.655-1.449c-.441-.166-.945-.194-1.62-.199-.007-.41-.028-.731-.105-1.018a3.13 3.13 0 0 0-2.21-2.21c-.399-.106-.864-.106-1.545-.106zm2.805 4.583v1.875a.625.625 0 1 0 1.25 0V6.46c.66.006.946.03 1.18.118.425.16.778.469.992.87.148.275.207.646.351 1.722l.667 5c.088.66.149 1.121.171 1.484.022.357.001.565-.046.721a1.88 1.88 0 0 1-1.02 1.166c-.15.067-.352.115-.71.141-.362.026-.828.026-1.493.026h-8.1c-.665 0-1.131 0-1.493-.026-.358-.026-.56-.073-.71-.141a1.88 1.88 0 0 1-1.02-1.166c-.047-.156-.068-.364-.046-.721.022-.363.083-.824.171-1.484l.667-5c.143-1.076.203-1.447.35-1.723.215-.4.568-.709.993-.869.234-.088.52-.112 1.18-.118v1.873a.625.625 0 1 0 1.25 0V6.458zm-.003-1.25c-.005-.362-.02-.543-.06-.693a1.88 1.88 0 0 0-1.326-1.326c-.219-.059-.504-.064-1.319-.064s-1.1.005-1.319.064a1.88 1.88 0 0 0-1.325 1.326c-.04.15-.056.33-.061.693z" clip-rule="evenodd"/></svg>