<svg xmlns="http://www.w3.org/2000/svg" width="20" height="20" fill="none"><g clip-path="url(#a)"><path fill="#12070B" fill-rule="evenodd" d="M19.954 1.345a1.81 1.81 0 0 0-1.3-1.3c-.312-.08-.621-.04-.88.013a14 14 0 0 0-.939.248L2.442 4.418c-.46.131-.847.242-1.143.35-.283.105-.621.254-.861.533a1.81 1.81 0 0 0-.254 1.977c.162.33.451.56.699.732.258.18.605.385 1.017.629l5.088 3.006c.357.211.479.285.586.368q.232.18.413.413c.083.107.157.229.368.586l3.006 5.088c.244.412.449.759.629 1.017.172.248.402.537.732.699.65.318 1.428.218 1.977-.254.279-.24.428-.578.532-.861.109-.296.22-.683.351-1.143l4.112-14.393c.105-.365.195-.68.248-.939s.093-.568.012-.88m-1.869.235c.123-.025.178-.027.193-.027a.26.26 0 0 1 .17.17c0 .014-.003.07-.028.192-.039.192-.112.45-.227.852l-4.096 14.335c-.142.497-.237.828-.323 1.062a1.4 1.4 0 0 1-.103.233.26.26 0 0 1-.249.032 1.4 1.4 0 0 1-.158-.2 17 17 0 0 1-.582-.945L9.67 12.183c-.11-.185-.199-.336-.285-.469l3.553-3.553a.776.776 0 1 0-1.098-1.098l-3.553 3.553a13 13 0 0 0-.469-.285l-5.1-3.014a17 17 0 0 1-.946-.58 1.4 1.4 0 0 1-.2-.16.26.26 0 0 1 .032-.248 1.4 1.4 0 0 1 .233-.103c.234-.086.565-.181 1.062-.323l14.336-4.096c.4-.115.658-.188.851-.227" clip-rule="evenodd"/></g><defs><clipPath id="a"><path fill="#fff" d="M0 0h20v20H0z"/></clipPath></defs></svg>