<svg xmlns="http://www.w3.org/2000/svg" width="167" height="47" fill="none"><rect width="167" height="47" fill="#12070B" rx="8"/><path fill="#FFD900" d="M51.68 26.574c2.374-1.3 4.174-2.292 4.329-2.369.496-.263 1.009-.96 0-1.501-.326-.17-2.08-1.13-4.33-2.368l-3.119 3.142z"/><path fill="#F43249" d="m48.56 23.478-9.932 9.984c.233.031.496-.03.807-.2.651-.356 7.557-4.118 12.244-6.688z"/><path fill="#00EE76" d="m48.56 23.478 3.12-3.127s-11.546-6.285-12.245-6.656c-.263-.156-.558-.202-.822-.156z"/><path fill="#00D3FF" d="m48.56 23.478-9.947-9.938c-.404.093-.745.449-.745 1.176v17.57c0 .666.264 1.146.76 1.192z"/><path fill="#fff" d="M69.679 15.05h.97v3.24q-.12.04-.35.09a9 9 0 0 1-1.16.18q-.35.04-.71.04-.73 0-1.33-.24t-1.03-.7a3.2 3.2 0 0 1-.67-1.13q-.23-.67-.23-1.54t.26-1.54q.27-.68.72-1.14t1.05-.7q.61-.24 1.3-.24a5.1 5.1 0 0 1 1.46.2q.26.08.42.16.17.08.23.12l-.31.81a2.5 2.5 0 0 0-.77-.31 3.7 3.7 0 0 0-.98-.13 2.4 2.4 0 0 0-.97.19q-.43.19-.74.55-.3.36-.47.88-.17.51-.17 1.15 0 .62.14 1.13.15.51.44.88.3.36.73.56.44.2 1.03.2.42 0 .71-.04.3-.05.43-.09zm2.489 3.41v-6.93h4.23v.83h-3.26v2.06h2.9v.81h-2.9v2.4h3.51v.83zm10.342-6.93v.84h-2.18v6.09h-.97v-6.09h-2.18v-.84zm3.34 0h.97v6.93h-.97zm7.315 0v.84h-2.18v6.09h-.97v-6.09h-2.18v-.84zm3.059 3.46q0-.89.26-1.57.27-.68.72-1.13.46-.459 1.06-.69.609-.23 1.29-.23.669 0 1.26.23.6.23 1.05.69.45.45.71 1.13.27.68.27 1.57t-.27 1.57a3.3 3.3 0 0 1-.71 1.14q-.45.45-1.05.68-.591.23-1.26.23-.681 0-1.29-.23-.6-.23-1.06-.68-.45-.459-.72-1.14-.26-.68-.26-1.57m1.02 0q0 .63.16 1.15.159.51.45.87.3.36.72.56.429.19.96.19t.95-.19q.42-.2.71-.56.3-.36.46-.87.16-.52.16-1.15t-.16-1.14a2.5 2.5 0 0 0-.46-.88 1.9 1.9 0 0 0-.71-.55q-.42-.2-.95-.2a2.25 2.25 0 0 0-.96.2 2 2 0 0 0-.72.55q-.291.36-.45.88-.16.51-.16 1.14m11.793 3.47a41 41 0 0 0-.51-.83q-.28-.46-.61-.95-.33-.5-.69-1.01-.35-.51-.7-.98-.35-.48-.68-.9t-.61-.74v5.41h-.95v-6.93h.77q.47.501 1 1.17.54.66 1.06 1.37.53.7.99 1.38.47.68.79 1.21v-5.13h.95v6.93zm-23.823 9.622c-1.785 0-3.26 1.377-3.26 3.266 0 1.873 1.46 3.266 3.26 3.266s3.259-1.377 3.259-3.266-1.459-3.266-3.26-3.266m0 5.232c-.978 0-1.831-.82-1.831-1.98 0-1.177.854-1.982 1.83-1.982.978 0 1.832.805 1.832 1.981 0 1.16-.854 1.981-1.831 1.981m-7.092-5.232c-1.8 0-3.26 1.377-3.26 3.266 0 1.873 1.46 3.266 3.26 3.266s3.259-1.377 3.259-3.266-1.46-3.266-3.26-3.266m0 5.232c-.978 0-1.831-.82-1.831-1.98 0-1.177.854-1.982 1.83-1.982.979 0 1.832.805 1.832 1.981 0 1.16-.839 1.981-1.831 1.981m-8.427-4.226v1.378h3.29c-.094.773-.357 1.346-.745 1.733-.48.48-1.226 1.007-2.545 1.007-2.033 0-3.6-1.64-3.6-3.669s1.568-3.7 3.6-3.7c1.102 0 1.894.434 2.483.991l.977-.975c-.823-.79-1.924-1.393-3.46-1.393-2.778 0-5.106 2.275-5.106 5.046s2.328 5.047 5.106 5.047c1.505 0 2.623-.495 3.523-1.425.915-.913 1.195-2.198 1.195-3.235 0-.325-.031-.62-.078-.867zm34.483 1.068c-.264-.727-1.102-2.074-2.778-2.074-1.677 0-3.058 1.316-3.058 3.266 0 1.826 1.381 3.266 3.213 3.266 1.49 0 2.343-.913 2.7-1.44l-1.102-.743c-.372.542-.869.898-1.598.898s-1.241-.325-1.568-.99l4.33-1.812zm-4.408 1.1c-.03-1.255.978-1.904 1.691-1.904.575 0 1.04.278 1.211.696zm-3.523 3.142h1.428V24.83h-1.428zm-2.327-5.589h-.046c-.326-.387-.931-.727-1.708-.727-1.63 0-3.103 1.44-3.103 3.266s1.49 3.25 3.103 3.25c.776 0 1.381-.34 1.708-.742h.046v.464c0 1.254-.668 1.92-1.738 1.92-.87 0-1.413-.635-1.63-1.162l-1.24.527c.356.867 1.303 1.935 2.87 1.935 1.676 0 3.088-.991 3.088-3.39v-5.867h-1.35zm-1.63 4.505c-.977 0-1.8-.82-1.8-1.965s.823-1.981 1.8-1.981c.963 0 1.739.836 1.739 1.98 0 1.13-.777 1.966-1.739 1.966m18.545-8.483h-3.414v9.567h1.428v-3.623h1.986c1.583 0 3.135-1.146 3.135-2.972s-1.552-2.972-3.135-2.972m.047 4.614h-2.018v-3.283h2.018c1.055 0 1.675.883 1.675 1.641-.014.743-.619 1.642-1.675 1.642m8.784-1.378c-1.024 0-2.095.448-2.53 1.47l1.258.527c.279-.527.775-.697 1.303-.697.745 0 1.49.449 1.506 1.238v.093c-.264-.155-.807-.372-1.49-.372-1.366 0-2.747.759-2.747 2.152 0 1.285 1.117 2.105 2.359 2.105.962 0 1.489-.433 1.815-.944h.046v.743h1.381v-3.669c-.015-1.687-1.272-2.647-2.901-2.647m-.171 5.232c-.465 0-1.118-.233-1.118-.805 0-.743.807-1.021 1.506-1.021.62 0 .915.14 1.303.325a1.716 1.716 0 0 1-1.691 1.501m8.054-5.015-1.629 4.133h-.047l-1.691-4.133h-1.536l2.545 5.789-1.444 3.235h1.49l3.895-9.024zm-12.787 6.114h1.428V24.83h-1.428z"/></svg>